<svg width="190" height="57" viewBox="0 0 190 57" fill="none" xmlns="http://www.w3.org/2000/svg">
<g filter="url(#filter0_d_151_1010)">
<path d="M4.01025 24.4898C4.01025 10.9644 14.9747 0 28.5 0H161.033C174.558 0 185.523 10.9644 185.523 24.4898C185.523 38.0151 174.558 48.9795 161.033 48.9795H28.5C14.9747 48.9795 4.01025 38.0151 4.01025 24.4898Z" fill="black" fill-opacity="0.1" shape-rendering="crispEdges"/>
<path d="M28.4996 0.501281H161.033C174.281 0.501281 185.021 11.2411 185.022 24.4893C185.022 37.7378 174.281 48.4784 161.033 48.4784H28.4996C15.2513 48.4781 4.51153 37.7376 4.51153 24.4893C4.51176 11.2412 15.2514 0.501513 28.4996 0.501281Z" stroke="white" stroke-opacity="0.15" shape-rendering="crispEdges"/>
</g>
<defs>
<filter id="filter0_d_151_1010" x="0" y="0" width="189.533" height="57" filterUnits="userSpaceOnUse" color-interpolation-filters="sRGB">
<feFlood flood-opacity="0" result="BackgroundImageFix"/>
<feColorMatrix in="SourceAlpha" type="matrix" values="0 0 0 0 0 0 0 0 0 0 0 0 0 0 0 0 0 0 127 0" result="hardAlpha"/>
<feOffset dy="4"/>
<feGaussianBlur stdDeviation="2"/>
<feComposite in2="hardAlpha" operator="out"/>
<feColorMatrix type="matrix" values="0 0 0 0 0 0 0 0 0 0 0 0 0 0 0 0 0 0 0.25 0"/>
<feBlend mode="normal" in2="BackgroundImageFix" result="effect1_dropShadow_151_1010"/>
<feBlend mode="normal" in="SourceGraphic" in2="effect1_dropShadow_151_1010" result="shape"/>
</filter>
</defs>
</svg>
