<svg width="103" height="82" viewBox="0 0 103 82" fill="none" xmlns="http://www.w3.org/2000/svg">
<path opacity="0.31" fill-rule="evenodd" clip-rule="evenodd" d="M0 43.5625V38.4375C0 21.5892 0 13.165 4.67598 7.49494C5.532 6.45694 6.48844 5.50515 7.5315 4.65329C13.2292 0 21.6945 0 38.625 0C55.5555 0 64.0208 0 69.7185 4.65329C70.7616 5.50515 71.718 6.45694 72.574 7.49494C76.1871 11.8762 77.0084 17.9018 77.1951 28.1876L80.6405 26.5005C90.6619 21.5141 95.6726 19.0209 99.3363 21.2743C103 23.5276 103 29.1025 103 40.2523V41.7477C103 52.8975 103 58.4724 99.3363 60.7257C95.6726 62.9791 90.6619 60.4859 80.6405 55.4995L77.1951 53.8125C77.0084 64.0983 76.1871 70.1239 72.574 74.5051C71.718 75.5431 70.7616 76.4949 69.7185 77.3467C64.0208 82 55.5555 82 38.625 82C21.6945 82 13.2292 82 7.5315 77.3467C6.48844 76.4949 5.532 75.5431 4.67598 74.5051C0 68.835 0 60.4108 0 43.5625ZM59.5374 28.4984C62.5542 25.4962 62.5542 20.6288 59.5374 17.6266C56.5206 14.6245 51.6294 14.6245 48.6126 17.6266C45.5958 20.6288 45.5958 25.4962 48.6126 28.4984C51.6294 31.5005 56.5206 31.5005 59.5374 28.4984Z" fill="white"/>
</svg>
