<svg width="292" height="55" viewBox="0 0 292 55" fill="none" xmlns="http://www.w3.org/2000/svg">
<path d="M86.7727 8.61363V7.36363H95.5V8.61363H91.8409V19H90.4318V8.61363H86.7727ZM97.0383 8.61363V7.36363H105.766V8.61363H102.107V19H100.697V8.61363H97.0383ZM111.554 10.2727V11.4091H107.031V10.2727H111.554ZM108.349 8.18182H109.69V16.5C109.69 16.8788 109.745 17.1629 109.855 17.3523C109.969 17.5379 110.113 17.6629 110.287 17.7273C110.465 17.7879 110.652 17.8182 110.849 17.8182C110.997 17.8182 111.118 17.8106 111.213 17.7954C111.308 17.7765 111.383 17.7614 111.44 17.75L111.713 18.9545C111.622 18.9886 111.495 19.0227 111.332 19.0568C111.169 19.0947 110.963 19.1136 110.713 19.1136C110.334 19.1136 109.963 19.0322 109.599 18.8693C109.24 18.7064 108.94 18.4583 108.702 18.125C108.467 17.7917 108.349 17.3712 108.349 16.8636V8.18182ZM116.139 19.2045C115.586 19.2045 115.084 19.1004 114.633 18.892C114.183 18.6799 113.825 18.375 113.56 17.9773C113.294 17.5758 113.162 17.0909 113.162 16.5227C113.162 16.0227 113.26 15.6174 113.457 15.3068C113.654 14.9924 113.918 14.7462 114.247 14.5682C114.577 14.3901 114.94 14.2576 115.338 14.1705C115.74 14.0795 116.143 14.0076 116.548 13.9545C117.079 13.8864 117.508 13.8352 117.838 13.8011C118.171 13.7633 118.414 13.7008 118.565 13.6136C118.721 13.5265 118.798 13.375 118.798 13.1591V13.1136C118.798 12.553 118.645 12.1174 118.338 11.8068C118.035 11.4962 117.575 11.3409 116.957 11.3409C116.317 11.3409 115.815 11.4811 115.452 11.7614C115.088 12.0417 114.832 12.3409 114.685 12.6591L113.412 12.2045C113.639 11.6742 113.942 11.2614 114.321 10.9659C114.704 10.6667 115.12 10.4583 115.571 10.3409C116.026 10.2197 116.473 10.1591 116.912 10.1591C117.192 10.1591 117.514 10.1932 117.878 10.2614C118.245 10.3258 118.599 10.4602 118.94 10.6648C119.285 10.8693 119.571 11.178 119.798 11.5909C120.026 12.0038 120.139 12.5568 120.139 13.25V19H118.798V17.8182H118.73C118.639 18.0076 118.488 18.2102 118.276 18.4261C118.063 18.642 117.781 18.8258 117.429 18.9773C117.077 19.1288 116.647 19.2045 116.139 19.2045ZM116.344 18C116.874 18 117.321 17.8958 117.685 17.6875C118.052 17.4792 118.329 17.2102 118.514 16.8807C118.704 16.5511 118.798 16.2045 118.798 15.8409V14.6136C118.741 14.6818 118.616 14.7443 118.423 14.8011C118.234 14.8542 118.014 14.9015 117.764 14.9432C117.518 14.9811 117.277 15.0151 117.043 15.0455C116.812 15.072 116.624 15.0947 116.48 15.1136C116.132 15.1591 115.806 15.233 115.503 15.3352C115.204 15.4337 114.961 15.5833 114.776 15.7841C114.594 15.9811 114.503 16.25 114.503 16.5909C114.503 17.0568 114.675 17.4091 115.02 17.6477C115.368 17.8826 115.81 18 116.344 18ZM123.928 7.36363V19H122.587V7.36363H123.928ZM130.043 19.1818C129.202 19.1818 128.476 18.9962 127.866 18.625C127.26 18.25 126.793 17.7273 126.463 17.0568C126.137 16.3826 125.974 15.5985 125.974 14.7045C125.974 13.8106 126.137 13.0227 126.463 12.3409C126.793 11.6553 127.251 11.1212 127.838 10.7386C128.429 10.3523 129.118 10.1591 129.906 10.1591C130.361 10.1591 130.81 10.2348 131.253 10.3864C131.696 10.5379 132.099 10.7841 132.463 11.125C132.827 11.4621 133.116 11.9091 133.332 12.4659C133.548 13.0227 133.656 13.7083 133.656 14.5227V15.0909H126.929V13.9318H132.293C132.293 13.4394 132.194 13 131.997 12.6136C131.804 12.2273 131.527 11.9223 131.168 11.6989C130.812 11.4754 130.391 11.3636 129.906 11.3636C129.372 11.3636 128.91 11.4962 128.52 11.7614C128.133 12.0227 127.836 12.3636 127.628 12.7841C127.419 13.2045 127.315 13.6553 127.315 14.1364V14.9091C127.315 15.5682 127.429 16.1269 127.656 16.5852C127.887 17.0398 128.207 17.3864 128.616 17.625C129.026 17.8598 129.501 17.9773 130.043 17.9773C130.395 17.9773 130.713 17.928 130.997 17.8295C131.285 17.7273 131.533 17.5758 131.741 17.375C131.95 17.1704 132.111 16.9167 132.224 16.6136L133.52 16.9773C133.383 17.4167 133.154 17.803 132.832 18.1364C132.51 18.4659 132.113 18.7235 131.639 18.9091C131.166 19.0909 130.633 19.1818 130.043 19.1818ZM137.037 13.75V19H135.696V10.2727H136.991V11.6364H137.105C137.31 11.1932 137.62 10.8371 138.037 10.5682C138.454 10.2955 138.991 10.1591 139.651 10.1591C140.241 10.1591 140.758 10.2803 141.202 10.5227C141.645 10.7614 141.99 11.125 142.236 11.6136C142.482 12.0985 142.605 12.7121 142.605 13.4545V19H141.264V13.5455C141.264 12.8598 141.086 12.3258 140.73 11.9432C140.374 11.5568 139.885 11.3636 139.264 11.3636C138.836 11.3636 138.454 11.4564 138.116 11.642C137.783 11.8276 137.52 12.0985 137.327 12.4545C137.133 12.8106 137.037 13.2424 137.037 13.75ZM148.851 10.2727V11.4091H144.328V10.2727H148.851ZM145.646 8.18182H146.987V16.5C146.987 16.8788 147.042 17.1629 147.152 17.3523C147.266 17.5379 147.41 17.6629 147.584 17.7273C147.762 17.7879 147.949 17.8182 148.146 17.8182C148.294 17.8182 148.415 17.8106 148.51 17.7954C148.605 17.7765 148.68 17.7614 148.737 17.75L149.01 18.9545C148.919 18.9886 148.792 19.0227 148.629 19.0568C148.466 19.0947 148.26 19.1136 148.01 19.1136C147.631 19.1136 147.26 19.0322 146.896 18.8693C146.536 18.7064 146.237 18.4583 145.999 18.125C145.764 17.7917 145.646 17.3712 145.646 16.8636V8.18182ZM154.828 19H151.237V7.36363H154.987C156.116 7.36363 157.082 7.59659 157.885 8.0625C158.688 8.52462 159.303 9.18939 159.731 10.0568C160.16 10.9205 160.374 11.9545 160.374 13.1591C160.374 14.3712 160.158 15.4148 159.726 16.2898C159.294 17.161 158.665 17.8314 157.839 18.3011C157.014 18.767 156.01 19 154.828 19ZM152.646 17.75H154.737C155.699 17.75 156.497 17.5644 157.129 17.1932C157.762 16.822 158.233 16.2936 158.544 15.608C158.855 14.9223 159.01 14.1061 159.01 13.1591C159.01 12.2197 158.856 11.411 158.55 10.733C158.243 10.0511 157.785 9.52841 157.175 9.16477C156.565 8.79735 155.805 8.61363 154.896 8.61363H152.646V17.75ZM166.214 19.1818C165.374 19.1818 164.648 18.9962 164.038 18.625C163.432 18.25 162.964 17.7273 162.635 17.0568C162.309 16.3826 162.146 15.5985 162.146 14.7045C162.146 13.8106 162.309 13.0227 162.635 12.3409C162.964 11.6553 163.423 11.1212 164.01 10.7386C164.601 10.3523 165.29 10.1591 166.078 10.1591C166.533 10.1591 166.981 10.2348 167.425 10.3864C167.868 10.5379 168.271 10.7841 168.635 11.125C168.999 11.4621 169.288 11.9091 169.504 12.4659C169.72 13.0227 169.828 13.7083 169.828 14.5227V15.0909H163.101V13.9318H168.464C168.464 13.4394 168.366 13 168.169 12.6136C167.976 12.2273 167.699 11.9223 167.339 11.6989C166.983 11.4754 166.563 11.3636 166.078 11.3636C165.544 11.3636 165.082 11.4962 164.692 11.7614C164.305 12.0227 164.008 12.3636 163.8 12.7841C163.591 13.2045 163.487 13.6553 163.487 14.1364V14.9091C163.487 15.5682 163.601 16.1269 163.828 16.5852C164.059 17.0398 164.379 17.3864 164.788 17.625C165.197 17.8598 165.673 17.9773 166.214 17.9773C166.567 17.9773 166.885 17.928 167.169 17.8295C167.457 17.7273 167.705 17.5758 167.913 17.375C168.122 17.1704 168.283 16.9167 168.396 16.6136L169.692 16.9773C169.555 17.4167 169.326 17.803 169.004 18.1364C168.682 18.4659 168.285 18.7235 167.811 18.9091C167.338 19.0909 166.805 19.1818 166.214 19.1818ZM178.739 10.2727L175.511 19H174.148L170.92 10.2727H172.375L174.784 17.2273H174.875L177.284 10.2727H178.739ZM180.113 11.368H194.465V12.504H180.113V11.368ZM181.105 6.632H193.553V7.784H181.105V6.632ZM187.473 13.176H188.721V18.28C188.721 18.5467 188.78 18.7227 188.897 18.808C189.025 18.8933 189.297 18.936 189.713 18.936C189.809 18.936 189.985 18.936 190.241 18.936C190.497 18.936 190.78 18.936 191.089 18.936C191.399 18.936 191.687 18.936 191.953 18.936C192.231 18.936 192.428 18.936 192.545 18.936C192.823 18.936 193.025 18.8773 193.153 18.76C193.292 18.632 193.388 18.3867 193.441 18.024C193.495 17.6507 193.537 17.1013 193.569 16.376C193.665 16.44 193.783 16.5093 193.921 16.584C194.06 16.648 194.199 16.7067 194.337 16.76C194.487 16.8027 194.615 16.84 194.721 16.872C194.668 17.7253 194.577 18.3867 194.449 18.856C194.321 19.3253 194.113 19.6507 193.825 19.832C193.548 20.024 193.148 20.12 192.625 20.12C192.561 20.12 192.423 20.12 192.209 20.12C192.007 20.12 191.772 20.12 191.505 20.12C191.239 20.12 190.972 20.12 190.705 20.12C190.439 20.12 190.204 20.12 190.001 20.12C189.799 20.12 189.665 20.12 189.601 20.12C189.047 20.12 188.615 20.0667 188.305 19.96C187.996 19.8533 187.777 19.6613 187.649 19.384C187.532 19.1173 187.473 18.744 187.473 18.264V13.176ZM186.449 7.08H187.665C187.644 8.31733 187.601 9.50133 187.537 10.632C187.473 11.752 187.324 12.8027 187.089 13.784C186.865 14.7653 186.508 15.672 186.017 16.504C185.527 17.3253 184.849 18.056 183.985 18.696C183.132 19.336 182.033 19.8747 180.689 20.312C180.615 20.1627 180.503 19.9867 180.353 19.784C180.204 19.5813 180.06 19.4213 179.921 19.304C181.212 18.8987 182.263 18.408 183.073 17.832C183.895 17.2453 184.529 16.5733 184.977 15.816C185.436 15.0587 185.767 14.2267 185.969 13.32C186.183 12.4027 186.311 11.4267 186.353 10.392C186.407 9.34666 186.439 8.24266 186.449 7.08ZM202.449 6.056H203.793C203.772 6.472 203.735 7.02133 203.681 7.704C203.628 8.38666 203.527 9.16 203.377 10.024C203.239 10.8773 203.02 11.768 202.721 12.696C202.423 13.624 202.023 14.5413 201.521 15.448C201.02 16.3547 200.38 17.2133 199.601 18.024C198.833 18.8347 197.895 19.5387 196.785 20.136C196.689 19.9867 196.551 19.8267 196.369 19.656C196.188 19.4853 196.001 19.336 195.809 19.208C196.908 18.6427 197.831 17.9813 198.577 17.224C199.324 16.4667 199.937 15.656 200.417 14.792C200.897 13.928 201.271 13.0587 201.537 12.184C201.804 11.2987 202.001 10.456 202.129 9.656C202.257 8.856 202.337 8.14666 202.369 7.528C202.412 6.89866 202.439 6.408 202.449 6.056ZM203.729 6.376C203.74 6.55733 203.761 6.872 203.793 7.32C203.836 7.75733 203.911 8.29066 204.017 8.92C204.124 9.54933 204.279 10.232 204.481 10.968C204.684 11.704 204.956 12.4613 205.297 13.24C205.639 14.0187 206.06 14.776 206.561 15.512C207.063 16.248 207.665 16.9307 208.369 17.56C209.073 18.1787 209.9 18.7013 210.849 19.128C210.668 19.2667 210.492 19.4267 210.321 19.608C210.161 19.8 210.028 19.976 209.921 20.136C208.961 19.6773 208.113 19.1173 207.377 18.456C206.652 17.784 206.028 17.0587 205.505 16.28C204.993 15.4907 204.561 14.6853 204.209 13.864C203.868 13.0427 203.591 12.2427 203.377 11.464C203.164 10.6747 203.004 9.944 202.897 9.272C202.791 8.58933 202.716 8.008 202.673 7.528C202.631 7.03733 202.604 6.68533 202.593 6.472L203.729 6.376ZM219.953 6.472H223.953V7.608H219.953V6.472ZM219.249 6.472H220.417V11.608C220.417 12.2693 220.385 12.984 220.321 13.752C220.257 14.5093 220.135 15.2773 219.953 16.056C219.783 16.8347 219.521 17.5867 219.169 18.312C218.817 19.0267 218.353 19.6827 217.777 20.28C217.724 20.2053 217.639 20.1147 217.521 20.008C217.415 19.912 217.297 19.816 217.169 19.72C217.052 19.624 216.951 19.5547 216.865 19.512C217.399 18.9467 217.825 18.3387 218.145 17.688C218.465 17.0267 218.705 16.3493 218.865 15.656C219.025 14.952 219.127 14.2587 219.169 13.576C219.223 12.8827 219.249 12.2267 219.249 11.608V6.472ZM223.425 6.472H224.609V18.008C224.609 18.264 224.615 18.472 224.625 18.632C224.647 18.7813 224.679 18.872 224.721 18.904C224.807 18.968 224.903 19 225.009 19C225.063 19 225.132 19 225.217 19C225.313 19 225.399 19 225.473 19C225.623 19 225.729 18.9627 225.793 18.888C225.836 18.8347 225.868 18.7707 225.889 18.696C225.921 18.6107 225.943 18.472 225.953 18.28C225.975 18.0987 225.991 17.8053 226.001 17.4C226.012 16.9947 226.017 16.5253 226.017 15.992C226.145 16.1093 226.295 16.216 226.465 16.312C226.636 16.3973 226.796 16.4613 226.945 16.504C226.945 16.8027 226.935 17.1227 226.913 17.464C226.903 17.7947 226.887 18.0987 226.865 18.376C226.855 18.6533 226.839 18.8613 226.817 19C226.743 19.4373 226.593 19.736 226.369 19.896C226.252 19.9707 226.119 20.024 225.969 20.056C225.831 20.0987 225.681 20.12 225.521 20.12C225.404 20.12 225.265 20.12 225.105 20.12C224.945 20.12 224.812 20.12 224.705 20.12C224.556 20.12 224.396 20.0933 224.225 20.04C224.055 19.9973 223.911 19.9227 223.793 19.816C223.697 19.7307 223.623 19.6293 223.569 19.512C223.516 19.3947 223.479 19.2133 223.457 18.968C223.436 18.712 223.425 18.36 223.425 17.912V6.472ZM212.113 8.984H218.305V10.136H212.113V8.984ZM214.769 5.56H215.937V20.264H214.769V5.56ZM214.721 9.704L215.505 9.96C215.356 10.6107 215.169 11.2827 214.945 11.976C214.721 12.6693 214.471 13.3467 214.193 14.008C213.916 14.6693 213.623 15.2827 213.313 15.848C213.004 16.4133 212.684 16.8933 212.353 17.288C212.289 17.128 212.193 16.9467 212.065 16.744C211.937 16.5307 211.825 16.3493 211.729 16.2C212.028 15.8373 212.327 15.4107 212.625 14.92C212.935 14.4187 213.217 13.8747 213.473 13.288C213.74 12.7013 213.98 12.104 214.193 11.496C214.407 10.888 214.583 10.2907 214.721 9.704ZM215.825 11.464C215.943 11.5707 216.119 11.752 216.353 12.008C216.599 12.264 216.86 12.5467 217.137 12.856C217.415 13.1653 217.665 13.4533 217.889 13.72C218.124 13.976 218.289 14.1573 218.385 14.264L217.633 15.256C217.516 15.064 217.351 14.824 217.137 14.536C216.935 14.2373 216.711 13.928 216.465 13.608C216.22 13.2773 215.985 12.9733 215.761 12.696C215.537 12.4187 215.356 12.2 215.217 12.04L215.825 11.464ZM235.073 8.232H242.673V9.384H234.513L235.073 8.232ZM237.073 11.704H242.305V12.808H237.073V11.704ZM237.073 15.24H242.513V16.376H237.073V15.24ZM236.481 8.616H237.697V20.264H236.481V8.616ZM235.697 5.752L236.849 6.056C236.551 6.89866 236.199 7.73066 235.793 8.552C235.399 9.36266 234.972 10.1253 234.513 10.84C234.055 11.5547 233.58 12.1893 233.089 12.744C233.025 12.68 232.935 12.5947 232.817 12.488C232.711 12.3813 232.593 12.2747 232.465 12.168C232.348 12.0613 232.247 11.9813 232.161 11.928C232.641 11.4267 233.1 10.8453 233.537 10.184C233.975 9.52266 234.375 8.81333 234.737 8.056C235.111 7.29866 235.431 6.53066 235.697 5.752ZM231.841 5.624L232.993 5.976C232.652 6.872 232.247 7.768 231.777 8.664C231.308 9.54933 230.801 10.3813 230.257 11.16C229.713 11.928 229.148 12.616 228.561 13.224C228.519 13.128 228.455 13.0053 228.369 12.856C228.284 12.696 228.193 12.536 228.097 12.376C228.012 12.216 227.932 12.0933 227.857 12.008C228.391 11.4853 228.903 10.8827 229.393 10.2C229.884 9.51733 230.337 8.78666 230.753 8.008C231.18 7.21866 231.543 6.424 231.841 5.624ZM230.145 9.736L231.329 8.536L231.345 8.568V20.248H230.145V9.736ZM244.241 18.264H258.369V19.448H244.241V18.264ZM248.721 5.752H249.953V18.76H248.721V5.752ZM252.641 5.768H253.857V18.84H252.641V5.768ZM256.945 9.288L258.033 9.8C257.777 10.408 257.495 11.048 257.185 11.72C256.876 12.392 256.556 13.0427 256.225 13.672C255.895 14.2907 255.58 14.8507 255.281 15.352L254.289 14.84C254.588 14.3493 254.903 13.784 255.233 13.144C255.564 12.504 255.879 11.848 256.177 11.176C256.476 10.504 256.732 9.87466 256.945 9.288ZM244.593 9.576L245.713 9.24C246.001 9.82666 246.289 10.4613 246.577 11.144C246.865 11.8267 247.132 12.488 247.377 13.128C247.633 13.7573 247.836 14.3067 247.985 14.776L246.785 15.224C246.657 14.744 246.471 14.1787 246.225 13.528C245.991 12.8773 245.729 12.2053 245.441 11.512C245.164 10.8187 244.881 10.1733 244.593 9.576ZM260.961 6.632H273.569V7.832H260.961V6.632ZM260.113 13.432H274.465V14.632H260.113V13.432ZM262.065 8.92L263.153 8.6C263.367 8.984 263.575 9.39466 263.777 9.832C263.98 10.2693 264.161 10.7013 264.321 11.128C264.492 11.544 264.609 11.9067 264.673 12.216L263.537 12.616C263.463 12.296 263.345 11.928 263.185 11.512C263.036 11.0853 262.865 10.648 262.673 10.2C262.481 9.74133 262.279 9.31466 262.065 8.92ZM271.361 8.52L272.625 8.872C272.433 9.30933 272.22 9.75733 271.985 10.216C271.761 10.6747 271.537 11.1173 271.313 11.544C271.089 11.9707 270.871 12.344 270.657 12.664L269.617 12.328C269.82 11.9867 270.028 11.5973 270.241 11.16C270.465 10.712 270.673 10.2587 270.865 9.8C271.057 9.33066 271.223 8.904 271.361 8.52ZM266.625 7.096H267.873V20.264H266.625V7.096ZM278.737 18.408H287.745V19.56H278.737V18.408ZM278.177 13.448H288.385V20.248H287.105V14.6H279.409V20.28H278.177V13.448ZM281.393 5.496L282.721 5.96C282.401 6.57866 282.044 7.224 281.649 7.896C281.265 8.55733 280.876 9.19733 280.481 9.816C280.087 10.424 279.708 10.9627 279.345 11.432L278.289 10.984C278.652 10.5147 279.025 9.96533 279.409 9.336C279.793 8.696 280.156 8.04 280.497 7.368C280.849 6.696 281.148 6.072 281.393 5.496ZM285.249 8.088L286.193 7.4C286.737 7.82666 287.292 8.30666 287.857 8.84C288.423 9.36266 288.94 9.896 289.409 10.44C289.889 10.9733 290.268 11.4587 290.545 11.896L289.505 12.696C289.249 12.2587 288.887 11.768 288.417 11.224C287.959 10.68 287.452 10.136 286.897 9.592C286.343 9.03733 285.793 8.536 285.249 8.088ZM276.289 10.472C277.047 10.4507 277.911 10.424 278.881 10.392C279.852 10.3493 280.887 10.3067 281.985 10.264C283.095 10.2213 284.225 10.1733 285.377 10.12C286.54 10.0667 287.687 10.0187 288.817 9.976L288.753 11.128C287.633 11.192 286.503 11.2507 285.361 11.304C284.231 11.3467 283.121 11.3947 282.033 11.448C280.945 11.5013 279.921 11.5493 278.961 11.592C278.001 11.624 277.143 11.656 276.385 11.688L276.289 10.472Z" fill="white"/>
<g filter="url(#filter0_d_151_1371)">
<path d="M10.5139 8.06487L4 0H33.5608V30.3053L22.177 41.503V8.06487H10.5139Z" fill="white"/>
<path d="M58.1897 8.06487L64.7036 0H35.1428V30.3053L46.5267 41.503V8.06487H58.1897Z" fill="white"/>
<rect x="34.2311" y="33.2521" width="9.72135" height="9.72135" transform="rotate(45.2591 34.2311 33.2521)" fill="white"/>
</g>
<path d="M91 45H87.4091V33.3636H91.1591C92.2879 33.3636 93.2538 33.5966 94.0568 34.0625C94.8598 34.5246 95.4754 35.1894 95.9034 36.0568C96.3314 36.9204 96.5454 37.9545 96.5454 39.1591C96.5454 40.3712 96.3295 41.4148 95.8977 42.2898C95.4659 43.161 94.8371 43.8314 94.0113 44.3011C93.1856 44.767 92.1818 45 91 45ZM88.8182 43.75H90.9091C91.8712 43.75 92.6685 43.5644 93.3011 43.1932C93.9337 42.822 94.4053 42.2935 94.7159 41.6079C95.0265 40.9223 95.1818 40.106 95.1818 39.1591C95.1818 38.2197 95.0284 37.411 94.7216 36.7329C94.4147 36.0511 93.9564 35.5284 93.3466 35.1648C92.7367 34.7973 91.9772 34.6136 91.0682 34.6136H88.8182V43.75ZM98.9091 45V33.3636H102.841C103.75 33.3636 104.496 33.5189 105.08 33.8295C105.663 34.1364 106.095 34.5587 106.375 35.0966C106.655 35.6345 106.795 36.2462 106.795 36.9318C106.795 37.6174 106.655 38.2254 106.375 38.7557C106.095 39.286 105.665 39.7026 105.085 40.0057C104.506 40.3049 103.765 40.4545 102.864 40.4545H99.6818V39.1818H102.818C103.439 39.1818 103.939 39.0909 104.318 38.9091C104.701 38.7273 104.977 38.4697 105.148 38.1364C105.322 37.7992 105.409 37.3977 105.409 36.9318C105.409 36.4659 105.322 36.0587 105.148 35.7102C104.973 35.3617 104.695 35.0928 104.312 34.9034C103.93 34.7102 103.424 34.6136 102.795 34.6136H100.318V45H98.9091ZM104.386 39.7727L107.25 45H105.614L102.795 39.7727H104.386ZM118.962 39.1818C118.962 40.4091 118.74 41.4697 118.297 42.3636C117.854 43.2576 117.246 43.947 116.473 44.4318C115.7 44.9167 114.818 45.1591 113.825 45.1591C112.833 45.1591 111.95 44.9167 111.178 44.4318C110.405 43.947 109.797 43.2576 109.354 42.3636C108.91 41.4697 108.689 40.4091 108.689 39.1818C108.689 37.9545 108.91 36.8939 109.354 36C109.797 35.1061 110.405 34.4167 111.178 33.9318C111.95 33.447 112.833 33.2045 113.825 33.2045C114.818 33.2045 115.7 33.447 116.473 33.9318C117.246 34.4167 117.854 35.1061 118.297 36C118.74 36.8939 118.962 37.9545 118.962 39.1818ZM117.598 39.1818C117.598 38.1742 117.429 37.3239 117.092 36.6307C116.759 35.9375 116.306 35.4129 115.734 35.0568C115.166 34.7007 114.53 34.5227 113.825 34.5227C113.121 34.5227 112.482 34.7007 111.91 35.0568C111.342 35.4129 110.89 35.9375 110.553 36.6307C110.219 37.3239 110.053 38.1742 110.053 39.1818C110.053 40.1894 110.219 41.0398 110.553 41.7329C110.89 42.4261 111.342 42.9507 111.91 43.3068C112.482 43.6629 113.121 43.8409 113.825 43.8409C114.53 43.8409 115.166 43.6629 115.734 43.3068C116.306 42.9507 116.759 42.4261 117.092 41.7329C117.429 41.0398 117.598 40.1894 117.598 39.1818ZM130.558 33.3636V45H129.195L122.854 35.8636H122.74V45H121.331V33.3636H122.695L129.058 42.5227H129.172V33.3636H130.558ZM133.378 45V33.3636H140.401V34.6136H134.787V38.5454H140.037V39.7954H134.787V43.75H140.491V45H133.378ZM147.44 45V33.3636H151.372C152.285 33.3636 153.031 33.5284 153.611 33.8579C154.194 34.1837 154.626 34.625 154.906 35.1818C155.187 35.7386 155.327 36.3598 155.327 37.0454C155.327 37.7311 155.187 38.3542 154.906 38.9148C154.63 39.4754 154.202 39.9223 153.622 40.2557C153.043 40.5852 152.3 40.75 151.395 40.75H148.577V39.5H151.349C151.974 39.5 152.476 39.392 152.855 39.1761C153.234 38.9602 153.508 38.6685 153.679 38.3011C153.853 37.9299 153.94 37.5114 153.94 37.0454C153.94 36.5795 153.853 36.1629 153.679 35.7954C153.508 35.428 153.232 35.1401 152.849 34.9318C152.467 34.7197 151.959 34.6136 151.327 34.6136H148.849V45H147.44ZM157.597 45V33.3636H159.006V43.75H164.415V45H157.597ZM166.597 45V33.3636H173.574V34.6136H168.006V38.5454H173.051V39.7954H168.006V45H166.597Z" fill="white"/>
<defs>
<filter id="filter0_d_151_1371" x="0" y="0" width="68.7036" height="55" filterUnits="userSpaceOnUse" color-interpolation-filters="sRGB">
<feFlood flood-opacity="0" result="BackgroundImageFix"/>
<feColorMatrix in="SourceAlpha" type="matrix" values="0 0 0 0 0 0 0 0 0 0 0 0 0 0 0 0 0 0 127 0" result="hardAlpha"/>
<feOffset dy="4"/>
<feGaussianBlur stdDeviation="2"/>
<feComposite in2="hardAlpha" operator="out"/>
<feColorMatrix type="matrix" values="0 0 0 0 0 0 0 0 0 0 0 0 0 0 0 0 0 0 0.25 0"/>
<feBlend mode="normal" in2="BackgroundImageFix" result="effect1_dropShadow_151_1371"/>
<feBlend mode="normal" in="SourceGraphic" in2="effect1_dropShadow_151_1371" result="shape"/>
</filter>
</defs>
</svg>
